<svg width="28" height="28" viewBox="0 0 28 28" fill="none" xmlns="http://www.w3.org/2000/svg">
<circle cx="14" cy="14" r="14" fill="#1F2022"/>
<path fill-rule="evenodd" clip-rule="evenodd" d="M16.0016 8.66621L16.5363 9.20523C16.7121 9.39211 16.8 9.61022 16.8 9.8593C16.8 10.1134 16.7121 10.3291 16.5363 10.5064L13.0719 14.0001L16.5362 17.4938C16.712 17.6711 16.7999 17.8868 16.7999 18.1408C16.7999 18.39 16.712 18.6081 16.5362 18.795L16.0015 19.3269C15.821 19.509 15.6048 19.6001 15.3529 19.6001C15.0962 19.6001 14.8824 19.509 14.7114 19.3269L10.0709 14.6471C9.89028 14.4745 9.79999 14.259 9.79999 14.0001C9.79999 13.7461 9.89028 13.528 10.0709 13.346L14.7114 8.66621C14.8872 8.48886 15.1011 8.4001 15.3529 8.4001C15.6 8.4001 15.8162 8.48886 16.0016 8.66621Z" fill="white"/>
</svg>
