<svg width="28" height="28" viewBox="0 0 28 28" fill="none" xmlns="http://www.w3.org/2000/svg">
<circle cx="14" cy="14" r="14" fill="#1F2022"/>
<path fill-rule="evenodd" clip-rule="evenodd" d="M11.9984 8.66621L11.4637 9.20523C11.2879 9.39211 11.2 9.61022 11.2 9.8593C11.2 10.1134 11.2879 10.3291 11.4637 10.5064L14.9281 14.0001L11.4638 17.4938C11.288 17.6711 11.2001 17.8868 11.2001 18.1408C11.2001 18.39 11.288 18.6081 11.4638 18.795L11.9985 19.3269C12.179 19.509 12.3952 19.6001 12.6471 19.6001C12.9038 19.6001 13.1176 19.509 13.2886 19.3269L17.9291 14.6471C18.1097 14.4745 18.2 14.259 18.2 14.0001C18.2 13.7461 18.1097 13.528 17.9291 13.346L13.2886 8.66621C13.1128 8.48886 12.8989 8.4001 12.6471 8.4001C12.4 8.4001 12.1838 8.48886 11.9984 8.66621Z" fill="white"/>
</svg>
