<svg width="16" height="15" viewBox="0 0 16 15" fill="none" xmlns="http://www.w3.org/2000/svg">
<g opacity="0.25">
<path fill-rule="evenodd" clip-rule="evenodd" d="M11.5 0.19458C11.776 0.19458 12 0.390731 12 0.632418V1.07026H4V0.632418C4 0.390731 4.224 0.19458 4.5 0.19458H11.5ZM14 2.38377C14 2.14208 13.776 1.94593 13.5 1.94593H2.5C2.224 1.94593 2 2.14208 2 2.38377V2.82161H14V2.38377ZM0.5 3.69728H15.5C15.776 3.69728 16 3.89343 16 4.13512V13.7676C16 14.0092 15.776 14.2054 15.5 14.2054H0.5C0.224 14.2054 0 14.0092 0 13.7676V4.13512C0 3.89343 0.224 3.69728 0.5 3.69728ZM10 7.58353C10 7.82522 10.224 8.02137 10.5 8.02137C10.776 8.02137 11 7.82522 11 7.58353C11 6.21398 9.426 5.59312 8.593 5.45652C8.447 5.43288 8.296 5.46615 8.181 5.54934C8.066 5.63253 8 5.756 8 5.88648V10.0039C7.706 9.89444 7.369 9.82702 7 9.82702C5.878 9.82702 5 10.4041 5 11.1405C5 11.877 5.878 12.454 7 12.454C8.122 12.454 9 11.877 9 11.1405V6.48806C9.453 6.66408 10 6.99858 10 7.58353Z" fill="#1F2022"/>
</g>
</svg>
