<svg width="14" height="15" viewBox="0 0 14 15" fill="none" xmlns="http://www.w3.org/2000/svg">
<path d="M9.89658 9.29563C8.77685 10.4192 8.56399 12.0271 9.42127 12.8873C10.2783 13.7473 11.881 13.5339 13.0007 12.4104C13.6878 11.7205 14.0319 10.8491 13.9977 10.0794H13.9995V2.63789V2.55265V0L4.50816 2.55265H4.42902V2.574V5.21209V10.2704C3.54491 9.57143 2.05826 9.81982 1.00134 10.8804C-0.118299 12.0042 -0.331221 13.6123 0.526055 14.4723C1.3832 15.3323 2.98571 15.1187 4.10534 13.9954C4.68737 13.4112 5.02203 12.6968 5.09097 12.0241H5.10166V11.8994V11.6154V5.03096L13.3271 2.81856V8.68756C12.4429 7.98613 10.9545 8.234 9.89658 9.29563Z" fill="#1F2022"/>
</svg>
