<svg width="12" height="17" viewBox="0 0 12 17" fill="none" xmlns="http://www.w3.org/2000/svg">
<g opacity="0.25">
<path fill-rule="evenodd" clip-rule="evenodd" d="M9.1405 0.400146C10.72 0.400146 12 1.48678 12 2.82713C12 4.16744 10.72 5.25397 9.1405 5.25397C7.56154 5.25397 6.28122 4.16744 6.28122 2.82713C6.28117 1.48678 7.5615 0.400146 9.1405 0.400146ZM2.95217 9.54136C3.19068 9.54136 3.40232 9.4501 3.54763 9.3086L8.36066 5.54701C7.40537 5.35028 6.61221 4.80003 6.18491 4.06912L2.38258 8.36496C2.24244 8.53105 2.1594 8.67586 2.1594 8.86817C2.1594 9.23976 2.51475 9.54136 2.95217 9.54136ZM4.78883 12.149C4.69697 12.2244 2.23824 14.2002 0.638798 13.1571C0.264263 12.9134 0.0457389 12.5758 0.0065683 12.1812C-0.10028 11.1092 1.12774 9.87778 1.4152 9.60575L1.81883 8.90976C1.81883 8.90976 1.92375 9.23588 2.31919 9.53748C2.74209 9.85921 2.92169 9.87621 2.92169 9.87621L2.02484 10.1416C1.62218 10.5332 0.812736 11.4688 0.878188 12.1187C0.89771 12.3069 0.990662 12.4495 1.17161 12.5675C2.00284 13.1093 3.67454 12.0259 4.19451 11.6035C4.23783 11.5707 4.99455 10.9997 5.96218 10.6062C7.72965 9.88604 8.73725 10.3379 9.27023 10.8438C9.68654 11.2388 9.86938 11.7117 9.81337 12.2501C9.62726 14.0443 6.71831 16.0005 6.59395 16.0833C6.5149 16.136 6.419 16.1623 6.32496 16.1623C6.1949 16.1623 6.06702 16.1136 5.9807 16.0202C5.8314 15.859 5.86436 15.6252 6.05417 15.4984C6.81453 14.9912 8.81484 13.4067 8.942 12.1842C8.97546 11.8545 8.87 11.5781 8.6176 11.3393C7.41505 10.1976 4.84288 12.1088 4.78947 12.1485L4.78883 12.149Z" fill="#1F2022"/>
</g>
</svg>
