<svg width="16" height="15" viewBox="0 0 16 15" fill="none" xmlns="http://www.w3.org/2000/svg">
<g opacity="0.25">
<path fill-rule="evenodd" clip-rule="evenodd" d="M15.4198 5.45588C14.7045 2.40071 11.554 0.092041 7.78606 0.092041C3.49276 0.092041 0 3.08923 0 6.77329C0 10.0615 2.7832 12.8006 6.43416 13.3516C6.3147 12.7372 6.5839 12.0226 7.21484 11.481C7.72958 11.0392 8.39664 10.7861 9.04485 10.7861C9.11534 10.7861 9.18513 10.7891 9.2531 10.7949V8.9989C8.81957 9.21014 8.31939 9.33257 7.7858 9.33257C6.14149 9.33257 4.80353 8.1843 4.80353 6.77329C4.80353 5.36225 6.14146 4.21415 7.7858 4.21415C9.33442 4.21415 10.6099 5.23228 10.7538 6.52904L15.4198 5.45588ZM10.8471 12.4629L10.8388 12.9191C11.2973 12.7506 11.7337 12.5457 12.1423 12.3083C12.0981 11.735 12.3729 11.0998 12.9463 10.6077C13.4283 10.1941 14.0443 9.94841 14.653 9.91875C14.7756 9.72226 14.887 9.52032 14.9863 9.31285V8.04013L10.8471 8.99229V12.2285L10.8477 12.2378L10.8471 12.253V12.4629H10.8471ZM3.49772 1.74619L5.3838 4.39937C5.86372 3.73011 6.97976 3.6851 6.97973 3.68535L6.39753 0.748108C4.81188 0.748108 3.49772 1.74619 3.49772 1.74619ZM7.55908 3.7573L7.03953 0.621443L7.61411 0.551538L8.1338 3.68727L7.55908 3.7573ZM5.67425 6.77331C5.67425 5.77406 6.6216 4.96118 7.78606 4.96118C8.93227 4.96118 9.86601 5.74891 9.8958 6.72628L9.80842 6.74642H9.30836H9.25369V7.11104V7.24435V8.07398C8.87298 8.39007 8.35591 8.58558 7.78606 8.58558C6.62156 8.58558 5.67425 7.77247 5.67425 6.77331ZM7.78606 7.33528C7.42509 7.33528 7.13153 7.08309 7.13153 6.77334C7.13153 6.46359 7.42509 6.2114 7.78606 6.2114C8.14715 6.2114 8.44063 6.46359 8.44063 6.77334C8.44063 7.08309 8.14715 7.33528 7.78606 7.33528ZM16 11.3915H15.9978C16.0196 11.8159 15.7994 12.2961 15.3557 12.676C14.9327 13.039 14.4026 13.2299 13.9253 13.2299C13.5885 13.2299 13.2778 13.1348 13.0497 12.9388C12.988 12.8863 12.9383 12.8267 12.8939 12.765C12.8154 12.6555 12.7674 12.5325 12.7403 12.4022C12.708 12.248 12.7102 12.0851 12.7477 11.9176C12.8219 11.5859 13.0239 11.2448 13.3557 10.9598C13.6273 10.7271 13.9414 10.5673 14.258 10.4827C14.432 10.4358 14.6071 10.4107 14.7757 10.4107C14.7855 10.4107 14.795 10.4116 14.8045 10.4125C14.8123 10.4132 14.8201 10.4139 14.8281 10.4141C14.9857 10.419 15.1353 10.4455 15.2741 10.4929C15.3787 10.5287 15.4782 10.5736 15.5665 10.6339V10.0261V9.05143V7.39116L15.5368 7.39804L10.2664 8.61012V12.2387C10.2666 12.2408 10.2665 12.2429 10.2664 12.245C10.2664 12.247 10.2663 12.2491 10.2664 12.2512V12.4624H10.2574C10.2282 12.7047 10.1202 12.9546 9.94929 13.1895C9.85836 13.3151 9.75494 13.4371 9.62461 13.549C9.56931 13.5966 9.51158 13.6408 9.45292 13.6824C9.06319 13.9583 8.60907 14.1029 8.19402 14.1029C7.86036 14.1029 7.5525 14.0089 7.32473 13.8161C7.32353 13.8152 7.32226 13.8144 7.32101 13.8137C7.32011 13.8132 7.31921 13.8126 7.31838 13.812C7.19078 13.7021 7.10359 13.5689 7.04848 13.4235C6.86488 12.9405 7.07025 12.3088 7.62468 11.8328C8.0455 11.4719 8.5704 11.2839 9.04452 11.2839C9.33978 11.2839 9.6153 11.3569 9.83345 11.506V8.70968V8.62934V8.06982V7.25646V7.24478H9.88442L10.2931 7.15096L10.7515 7.04522L15.5112 5.9504L15.9357 5.85271L16 5.8379V6.51766V7.02857V7.24437V7.29154V9.1137V11.3915Z" fill="#1F2022"/>
</g>
</svg>
